<svg width="345" height="48" viewBox="0 0 345 48" fill="none" xmlns="http://www.w3.org/2000/svg">
<path d="M318.474 14.016V13.152H332.394V14.016H329.802L335.034 29.952L340.602 14.016H337.386V13.152H344.154V14.016H341.754L332.778 39.888C331.722 42.896 330.538 44.992 329.226 46.176C327.914 47.392 326.314 48 324.426 48C322.538 48 321.05 47.568 319.962 46.704C318.874 45.84 318.33 44.736 318.33 43.392C318.33 42.048 318.682 41.024 319.386 40.32C320.09 39.616 321.018 39.264 322.17 39.264C324.826 39.264 326.154 40.368 326.154 42.576C326.154 43.056 326.058 43.632 325.866 44.304H324.186C323.93 45.04 323.898 45.648 324.09 46.128C324.282 46.608 324.714 46.848 325.386 46.848C326.698 46.848 327.866 46.192 328.89 44.88C329.914 43.6 330.89 41.632 331.818 38.976L332.874 36H328.65L320.442 14.016H318.474Z" fill="#2B404A" fill-opacity="0.15"/>
<path d="M307.807 36.48C303.679 36.48 300.575 35.424 298.495 33.312C296.447 31.168 295.423 28.208 295.423 24.432C295.423 20.624 296.575 17.712 298.879 15.696C301.215 13.68 304.175 12.672 307.759 12.672C315.023 12.672 318.511 16.32 318.223 23.616H304.687V25.488C304.687 28.624 305.087 30.992 305.887 32.592C306.687 34.192 308.079 34.992 310.063 34.992C313.775 34.992 316.207 33.008 317.359 29.04L318.223 29.184C317.615 31.488 316.511 33.28 314.911 34.56C313.343 35.84 310.975 36.48 307.807 36.48ZM304.735 22.656H309.679V20.304C309.679 17.712 309.519 15.952 309.199 15.024C308.911 14.064 308.303 13.584 307.375 13.584C306.479 13.584 305.807 14.096 305.359 15.12C304.943 16.112 304.735 17.84 304.735 20.304V22.656Z" fill="#2B404A" fill-opacity="0.15"/>
<path d="M275.475 36.48V27.888H276.051C276.883 30.672 278.003 32.624 279.411 33.744C280.819 34.864 282.579 35.424 284.691 35.424C287.955 35.424 289.587 34.384 289.587 32.304C289.587 31.408 289.187 30.736 288.387 30.288C287.139 29.584 285.539 29.04 283.587 28.656C281.411 28.08 279.587 27.312 278.115 26.352C276.355 25.2 275.475 23.376 275.475 20.88C275.475 18.384 276.243 16.4 277.779 14.928C279.315 13.424 281.363 12.672 283.923 12.672C285.491 12.672 287.107 13.04 288.771 13.776C289.379 14.032 289.843 14.16 290.163 14.16C290.483 14.16 290.755 14.048 290.979 13.824C291.203 13.6 291.475 13.184 291.795 12.576H292.323V19.92H291.747C290.115 15.76 287.587 13.68 284.163 13.68C282.659 13.68 281.539 13.952 280.803 14.496C280.067 15.008 279.699 15.664 279.699 16.464C279.699 16.944 279.811 17.328 280.035 17.616C280.259 17.872 280.435 18.064 280.563 18.192C280.691 18.32 280.899 18.464 281.187 18.624C281.475 18.752 281.715 18.864 281.907 18.96C282.099 19.024 282.387 19.12 282.771 19.248C283.187 19.376 283.491 19.456 283.683 19.488C285.859 20.032 287.427 20.512 288.387 20.928C289.347 21.312 290.259 21.792 291.123 22.368C292.883 23.584 293.763 25.552 293.763 28.272C293.763 30.96 292.963 33.008 291.363 34.416C289.763 35.792 287.571 36.48 284.787 36.48C282.803 36.48 280.883 36.016 279.027 35.088C278.643 34.832 278.339 34.704 278.115 34.704C277.411 34.704 276.723 35.296 276.051 36.48H275.475Z" fill="#2B404A" fill-opacity="0.15"/>
<path d="M254.662 36.48V27.888H255.238C256.07 30.672 257.19 32.624 258.598 33.744C260.006 34.864 261.766 35.424 263.878 35.424C267.142 35.424 268.774 34.384 268.774 32.304C268.774 31.408 268.374 30.736 267.574 30.288C266.326 29.584 264.726 29.04 262.774 28.656C260.598 28.08 258.774 27.312 257.302 26.352C255.542 25.2 254.662 23.376 254.662 20.88C254.662 18.384 255.43 16.4 256.966 14.928C258.502 13.424 260.55 12.672 263.11 12.672C264.678 12.672 266.294 13.04 267.958 13.776C268.566 14.032 269.03 14.16 269.35 14.16C269.67 14.16 269.942 14.048 270.166 13.824C270.39 13.6 270.662 13.184 270.982 12.576H271.51V19.92H270.934C269.302 15.76 266.774 13.68 263.35 13.68C261.846 13.68 260.726 13.952 259.99 14.496C259.254 15.008 258.886 15.664 258.886 16.464C258.886 16.944 258.998 17.328 259.222 17.616C259.446 17.872 259.622 18.064 259.75 18.192C259.878 18.32 260.086 18.464 260.374 18.624C260.662 18.752 260.902 18.864 261.094 18.96C261.286 19.024 261.574 19.12 261.958 19.248C262.374 19.376 262.678 19.456 262.87 19.488C265.046 20.032 266.614 20.512 267.574 20.928C268.534 21.312 269.446 21.792 270.31 22.368C272.07 23.584 272.95 25.552 272.95 28.272C272.95 30.96 272.15 33.008 270.55 34.416C268.95 35.792 266.758 36.48 263.974 36.48C261.99 36.48 260.07 36.016 258.214 35.088C257.83 34.832 257.526 34.704 257.302 34.704C256.598 34.704 255.91 35.296 255.238 36.48H254.662Z" fill="#2B404A" fill-opacity="0.15"/>
<path d="M238.734 24.72H240.126V21.024C240.126 17.984 239.95 15.952 239.598 14.928C239.278 13.872 238.638 13.344 237.678 13.344C237.102 13.344 236.574 13.504 236.094 13.824C235.646 14.112 235.422 14.528 235.422 15.072C235.422 15.584 235.518 16.112 235.71 16.656H236.91C237.166 17.328 237.294 18.144 237.294 19.104C237.294 20.032 236.894 20.848 236.094 21.552C235.294 22.224 234.286 22.56 233.07 22.56C230.318 22.56 228.942 21.232 228.942 18.576C228.942 14.64 232.286 12.672 238.974 12.672C242.782 12.672 245.406 13.328 246.846 14.64C248.318 15.92 249.054 18.288 249.054 21.744V31.488C249.054 33.152 249.518 33.984 250.446 33.984C251.534 33.984 252.174 32.336 252.366 29.04L253.086 29.088C252.958 31.904 252.43 33.84 251.502 34.896C250.574 35.952 249.054 36.48 246.942 36.48C243.102 36.48 240.894 35.296 240.318 32.928C239.902 34.144 239.278 35.04 238.446 35.616C237.614 36.192 236.398 36.48 234.798 36.48C230.062 36.48 227.694 34.544 227.694 30.672C227.694 28.4 228.59 26.848 230.382 26.016C232.206 25.152 234.99 24.72 238.734 24.72ZM236.814 30.624C236.814 32.288 236.894 33.36 237.054 33.84C237.246 34.32 237.582 34.56 238.062 34.56C238.574 34.56 239.038 34.16 239.454 33.36C239.902 32.528 240.126 31.392 240.126 29.952V25.488H239.79C237.806 25.488 236.814 26.944 236.814 29.856V30.624Z" fill="#2B404A" fill-opacity="0.15"/>
<path d="M212.726 2.40002H225.542V3.31202H222.902V35.088H225.542V36H210.902V35.088H213.542V5.08802H213.35L206.15 36H200.15L191.702 4.94403H191.51V35.088H194.15V36H187.622V35.088H190.262V3.31202H187.622V2.40002H200.582L206.966 27.12L212.726 2.40002Z" fill="#2B404A" fill-opacity="0.15"/>
<path d="M135.667 13.152H147.235V17.568C148.291 14.304 150.611 12.672 154.195 12.672C157.811 12.672 160.003 14.4 160.771 17.856C161.891 14.4 164.243 12.672 167.827 12.672C172.531 12.672 174.883 15.344 174.883 20.688V35.136H177.571V36H164.275V35.136H165.955V19.536C165.955 17.104 165.747 15.68 165.331 15.264C165.139 15.072 164.883 14.976 164.563 14.976C163.635 14.976 162.819 15.6 162.115 16.848C161.411 18.096 161.059 19.68 161.059 21.6V35.136H162.787V36H150.451V35.136H152.131V19.536C152.131 17.104 151.923 15.68 151.507 15.264C151.315 15.072 151.059 14.976 150.739 14.976C149.843 14.976 149.027 15.664 148.291 17.04C147.587 18.384 147.235 20 147.235 21.888V35.136H148.963V36H135.667V35.136H138.307V14.016H135.667V13.152Z" fill="#2B404A" fill-opacity="0.15"/>
<path d="M120.844 24.72H122.236V21.024C122.236 17.984 122.06 15.952 121.708 14.928C121.388 13.872 120.748 13.344 119.788 13.344C119.212 13.344 118.684 13.504 118.204 13.824C117.756 14.112 117.532 14.528 117.532 15.072C117.532 15.584 117.628 16.112 117.82 16.656H119.02C119.276 17.328 119.404 18.144 119.404 19.104C119.404 20.032 119.004 20.848 118.204 21.552C117.404 22.224 116.396 22.56 115.18 22.56C112.428 22.56 111.052 21.232 111.052 18.576C111.052 14.64 114.396 12.672 121.084 12.672C124.892 12.672 127.516 13.328 128.956 14.64C130.428 15.92 131.164 18.288 131.164 21.744V31.488C131.164 33.152 131.628 33.984 132.556 33.984C133.644 33.984 134.284 32.336 134.476 29.04L135.196 29.088C135.068 31.904 134.54 33.84 133.612 34.896C132.684 35.952 131.164 36.48 129.052 36.48C125.212 36.48 123.004 35.296 122.428 32.928C122.012 34.144 121.388 35.04 120.556 35.616C119.724 36.192 118.508 36.48 116.908 36.48C112.172 36.48 109.804 34.544 109.804 30.672C109.804 28.4 110.7 26.848 112.492 26.016C114.316 25.152 117.1 24.72 120.844 24.72ZM118.924 30.624C118.924 32.288 119.004 33.36 119.164 33.84C119.356 34.32 119.692 34.56 120.172 34.56C120.684 34.56 121.148 34.16 121.564 33.36C122.012 32.528 122.236 31.392 122.236 29.952V25.488H121.9C119.916 25.488 118.924 26.944 118.924 29.856V30.624Z" fill="#2B404A" fill-opacity="0.15"/>
<path d="M101.145 9.83999C99.4494 9.83999 98.2334 9.40799 97.4974 8.54399C96.7934 7.67999 96.4414 6.60799 96.4414 5.32798C96.4414 4.04799 96.8254 2.99199 97.5934 2.15999C98.3934 1.32799 99.5934 0.911987 101.193 0.911987C102.793 0.911987 104.009 1.29599 104.841 2.06399C105.673 2.79999 106.089 3.87199 106.089 5.27999C106.089 6.65599 105.689 7.75999 104.889 8.59199C104.089 9.42399 102.841 9.83999 101.145 9.83999ZM93.8974 13.152H105.657V35.136H108.345V36H94.0894V35.136H96.7294V14.016H93.8974V13.152Z" fill="#2B404A" fill-opacity="0.15"/>
<path d="M78.7099 0H90.4699V35.136H93.1579V36H78.9019V35.136H81.5419V0.864H78.7099V0Z" fill="#2B404A" fill-opacity="0.15"/>
<path d="M63.5224 0H75.2824V35.136H77.9704V36H63.7144V35.136H66.3544V0.864H63.5224V0Z" fill="#2B404A" fill-opacity="0.15"/>
<path d="M55.536 9.83999C53.84 9.83999 52.624 9.40799 51.888 8.54399C51.184 7.67999 50.832 6.60799 50.832 5.32798C50.832 4.04799 51.216 2.99199 51.984 2.15999C52.784 1.32799 53.984 0.911987 55.584 0.911987C57.184 0.911987 58.4 1.29599 59.232 2.06399C60.064 2.79999 60.48 3.87199 60.48 5.27999C60.48 6.65599 60.08 7.75999 59.28 8.59199C58.48 9.42399 57.232 9.83999 55.536 9.83999ZM48.288 13.152H60.048V35.136H62.736V36H48.48V35.136H51.12V14.016H48.288V13.152Z" fill="#2B404A" fill-opacity="0.15"/>
<path d="M20.352 26.304L24.336 12.48L21.456 3.31202H18.72V2.40002H33.6V3.31202H30.768L37.92 26.016L43.68 3.31202H38.832V2.40002H48.432V3.31202H45.264L36.432 36.48H32.16L25.056 14.784L18.816 36.48H14.64L2.54402 3.31202H0.288025V2.40002H15.888V3.31202H12.528L20.352 26.304Z" fill="#2B404A" fill-opacity="0.15"/>
<path d="M0 15.6226H10.1191V17.9966H0V15.6226Z" fill="black"/>
<path d="M39.7705 9.17725H42.6279L46.1406 20.9077L50.5557 9.17725H53.0479L56.6787 20.9077L60.9756 9.17725H63.833L57.9785 24.4419H55.3896L51.7158 12.7651L47.3975 24.4419H44.8086L39.7705 9.17725Z" fill="black"/>
<path d="M69.833 9.17725H72.54V24.4419H69.833V9.17725Z" fill="black"/>
<path d="M78.54 9.17725H81.2471V21.9604H88.9814V24.4419H78.54V9.17725Z" fill="black"/>
<path d="M94.9814 9.17725H97.6885V21.9604H105.423V24.4419H94.9814V9.17725Z" fill="black"/>
<path d="M111.423 9.17725H114.13V24.4419H111.423V9.17725Z" fill="black"/>
<path d="M126.178 9.17725H129.143L135.18 24.4419H132.397L130.689 20.4458H124.459L122.751 24.4419H120.13L126.178 9.17725ZM129.744 17.9644L127.574 12.3032L125.394 17.9644H129.744Z" fill="black"/>
<path d="M141.18 9.17725H144.467L149.537 17.9429L154.683 9.17725H157.809V24.4419H155.102V13.0229L150.762 20.0698H148.205L143.887 13.0229V24.4419H141.18V9.17725Z" fill="black"/>
<path d="M187.46 9.17725H190.747L195.817 17.9429L200.963 9.17725H204.089V24.4419H201.382V13.0229L197.042 20.0698H194.485L190.167 13.0229V24.4419H187.46V9.17725Z" fill="black"/>
<path d="M217.137 9.17725H220.102L226.139 24.4419H223.356L221.648 20.4458H215.418L213.71 24.4419H211.089L217.137 9.17725ZM220.703 17.9644L218.533 12.3032L216.353 17.9644H220.703Z" fill="black"/>
<path d="M240.519 9C241.944 9 243.351 9.21126 244.74 9.63379L245.181 9.7627L244.3 12.2549L243.892 12.1367C242.595 11.7786 241.414 11.5996 240.347 11.5996C239.294 11.5996 238.392 11.7715 237.64 12.1152C236.895 12.459 236.522 12.8994 236.522 13.4365C236.522 13.7874 236.687 14.0954 237.017 14.3604C237.353 14.6253 237.786 14.8509 238.316 15.0371C238.846 15.2161 239.43 15.3952 240.067 15.5742C240.712 15.7533 241.356 15.9609 242.001 16.1973C242.646 16.4336 243.233 16.7057 243.763 17.0137C244.293 17.3216 244.722 17.7334 245.052 18.249C245.388 18.7575 245.557 19.3447 245.557 20.0107C245.557 20.4404 245.481 20.8665 245.331 21.2891C245.188 21.7044 244.941 22.1162 244.59 22.5244C244.246 22.9326 243.816 23.2907 243.301 23.5986C242.792 23.8994 242.141 24.1465 241.346 24.3398C240.558 24.526 239.674 24.6191 238.692 24.6191C237.711 24.6191 236.827 24.5296 236.039 24.3506C235.251 24.1644 234.417 23.8994 233.536 23.5557L233.139 23.4053L234.052 20.8057L234.471 20.9668C236.283 21.6113 237.776 21.9336 238.95 21.9336C240.053 21.9336 240.945 21.7653 241.625 21.4287C242.312 21.0921 242.656 20.6481 242.656 20.0967C242.656 19.7887 242.552 19.513 242.345 19.2695C242.137 19.026 241.858 18.8219 241.507 18.6572C241.156 18.4854 240.751 18.3278 240.293 18.1846C239.842 18.0413 239.366 17.9017 238.864 17.7656C238.363 17.6296 237.862 17.4827 237.36 17.3252C236.859 17.1676 236.379 16.9779 235.921 16.7559C235.47 16.5339 235.069 16.2832 234.718 16.0039C234.367 15.7246 234.088 15.3773 233.88 14.9619C233.672 14.5394 233.568 14.0703 233.568 13.5547C233.568 12.2656 234.199 11.1842 235.459 10.3105C236.727 9.43685 238.413 9 240.519 9Z" fill="black"/>
<path d="M259.937 9C261.362 9 262.769 9.21126 264.158 9.63379L264.599 9.7627L263.718 12.2549L263.31 12.1367C262.013 11.7786 260.832 11.5996 259.765 11.5996C258.712 11.5996 257.81 11.7715 257.058 12.1152C256.313 12.459 255.94 12.8994 255.94 13.4365C255.94 13.7874 256.105 14.0954 256.435 14.3604C256.771 14.6253 257.204 14.8509 257.734 15.0371C258.264 15.2161 258.848 15.3952 259.485 15.5742C260.13 15.7533 260.774 15.9609 261.419 16.1973C262.063 16.4336 262.651 16.7057 263.181 17.0137C263.711 17.3216 264.14 17.7334 264.47 18.249C264.806 18.7575 264.975 19.3447 264.975 20.0107C264.975 20.4404 264.899 20.8665 264.749 21.2891C264.606 21.7044 264.359 22.1162 264.008 22.5244C263.664 22.9326 263.234 23.2907 262.719 23.5986C262.21 23.8994 261.559 24.1465 260.764 24.3398C259.976 24.526 259.091 24.6191 258.11 24.6191C257.129 24.6191 256.245 24.5296 255.457 24.3506C254.669 24.1644 253.835 23.8994 252.954 23.5557L252.557 23.4053L253.47 20.8057L253.889 20.9668C255.701 21.6113 257.194 21.9336 258.368 21.9336C259.471 21.9336 260.363 21.7653 261.043 21.4287C261.73 21.0921 262.074 20.6481 262.074 20.0967C262.074 19.7887 261.97 19.513 261.763 19.2695C261.555 19.026 261.276 18.8219 260.925 18.6572C260.574 18.4854 260.169 18.3278 259.711 18.1846C259.26 18.0413 258.784 17.9017 258.282 17.7656C257.781 17.6296 257.28 17.4827 256.778 17.3252C256.277 17.1676 255.797 16.9779 255.339 16.7559C254.888 16.5339 254.487 16.2832 254.136 16.0039C253.785 15.7246 253.506 15.3773 253.298 14.9619C253.09 14.5394 252.986 14.0703 252.986 13.5547C252.986 12.2656 253.617 11.1842 254.877 10.3105C256.145 9.43685 257.831 9 259.937 9Z" fill="black"/>
<path d="M271.975 24.4419V9.17725H282.685V11.6694H274.692V15.3325H282.094V17.8247H274.692V21.9497H282.685V24.4419H271.975Z" fill="black"/>
<path d="M289.685 9.17725H292.886L296.968 15.0962L301.136 9.17725H304.229L298.375 17.3091V24.4419H295.335V17.3091L289.685 9.17725Z" fill="black"/>
<path d="M333.881 15.6226H344V17.9966H333.881V15.6226Z" fill="black"/>
</svg>
